<?xml version="1.0" encoding="UTF-8" standalone="no"?>
<!-- Created with Inkscape (http://www.inkscape.org/) -->

<svg
   width="336.05mm"
   height="121.22mm"
   version="1.1"
   viewBox="0 0 336.05 121.22"
   id="svg53"
   sodipodi:docname="desk_diagram.svg"
   inkscape:version="1.4 (86a8ad7, 2024-10-11)"
   xmlns:inkscape="http://www.inkscape.org/namespaces/inkscape"
   xmlns:sodipodi="http://sodipodi.sourceforge.net/DTD/sodipodi-0.dtd"
   xmlns="http://www.w3.org/2000/svg"
   xmlns:svg="http://www.w3.org/2000/svg">
  <defs
     id="defs53" />
  <sodipodi:namedview
     id="namedview53"
     pagecolor="#ffffff"
     bordercolor="#000000"
     borderopacity="0.25"
     inkscape:showpageshadow="2"
     inkscape:pageopacity="0.0"
     inkscape:pagecheckerboard="0"
     inkscape:deskcolor="#d1d1d1"
     inkscape:document-units="mm"
     inkscape:zoom="1.9021972"
     inkscape:cx="635.0551"
     inkscape:cy="228.94577"
     inkscape:window-width="2560"
     inkscape:window-height="1377"
     inkscape:window-x="-8"
     inkscape:window-y="1072"
     inkscape:window-maximized="1"
     inkscape:current-layer="g47" />
  <g
     transform="translate(-41.366 -77.1)"
     id="g53">
    <g
       transform="translate(-298.82 88.371)"
       id="g21">
      <g
         fill="none"
         stroke="#000"
         stroke-width=".5"
         id="g20">
        <g
           id="g18">
          <path
             d="m526.91-5.0472c0.36236 2.04 1.2059 2.8599 2.8083 2.9274l5.5168-0.21554m-0.0773-0.76304s0.14721 1.4981 0.51514 1.7029c0.25663 0.14283 15.006 0.53563 15.006 0.53563l5.7836-0.76499 0.0403-0.88174"
             id="path1" />
          <path
             d="m534.26-4.8505 0.0695 1.6813 44.045 1.1804m67.849 1.8276-56.21-1.5157v-1.7397"
             id="path2" />
          <path
             d="m645.7 2.1216 0.0187 48.917s0.28497 0.7085 3.851 0.74957c3.566 0.0411 3.8795-0.58852 3.8795-0.58852l-0.0333-49.13"
             id="path3" />
          <path
             d="m645.99 51.336 9e-3 25.015s0.65508 0.73694 3.4524 0.7211c2.7973-0.0158 3.2246-0.58852 3.2246-0.58852l5e-3 -24.839"
             id="path4" />
          <path
             d="m646.53 76.747 0.068 24.589s0.37729 0.61611 2.6512 0.60031c2.2739-0.0158 2.7769-0.76137 2.7769-0.76137l-0.0189-24.388"
             id="path5" />
          <path
             d="m540.02 44.967 0.0111 22.817s0.98064 0.84447 3.2546 0.82867c2.2739-0.0158 3.0996-0.73493 3.0996-0.73493l-0.0756-23.074"
             id="path6" />
          <path
             d="m540.52 68.084 0.15055 22.523s0.37729 0.61611 2.6512 0.60031c2.2739-0.0158 2.7769-0.76137 2.7769-0.76137l-0.12499-22.436"
             id="path7" />
          <path
             d="m539.52-1.1746 0.0104 45.732s0.6577 0.80689 3.4185 0.80773c2.7608 8.4e-4 3.6166-0.68572 3.6166-0.68572l-0.05-45.577"
             id="path8" />
          <path
             d="m633.47 107.18 0.0175 1.4677c0.35753 0.45932 1.6298 0.71572 2.2832 0.80752 1.3067 0.1836 1.8567 0.34708 3.5613 0.17321 0 0 24.344-9.6899 24.35-9.8458 6e-3 -0.14773-0.0236-1.8576-0.0236-1.8576m-11.605 0.8998c2.4152-0.79053 4.5094-1.3908 5.1141-1.526 1.0588-0.23676 2.7475-0.10327 3.8294 1e-3 1.0819 0.10439 2.741 0.38615 2.6618 0.6252-0.16833 0.50824-7.8048 2.4312-11.867 4.1109-4.0617 1.6797-11.89 5.7355-12.504 5.9675s-1.7236 0.2432-3.0333 0.14681c-1.3097-0.0964-3.0118-0.53973-2.7849-0.9703 0.54984-1.0434 9.1749-4.7554 13.094-6.3687"
             id="path9" />
          <path
             d="m633.43 108.68"
             id="path10" />
          <path
             d="m526.33 96.33 0.0175 1.4677c0.35753 0.45932 1.459 0.43102 2.1124 0.52282 1.3067 0.1836 1.9137 0.0624 3.6183-0.11149 0 0 28.501-8.8928 28.507-9.0486 6e-3 -0.14773-0.0236-1.459-0.0236-1.459m-14.448 1.2313c3.6113-0.89054 7.277-1.7056 7.9564-1.8575 1.0588-0.23676 2.7475-0.10327 3.8294 1e-3 1.0819 0.10439 2.741 0.38615 2.6618 0.6252-0.16833 0.50824-9.4818 2.4959-13.689 3.7693-4.2326 1.2812-14.225 5.1661-14.838 5.3981s-1.6097 0.5279-2.9194 0.43151c-1.3097-0.0964-3.0118-0.53973-2.7849-0.9703 0.54984-1.0434 10.508-4.779 14.313-5.9368"
             id="path11" />
          <path
             d="m513.19-7.1801-0.0124 1.5489m1e-5 0c0.0103 0.0909 0.19682 0.17724 0.59297 0.18874l112.26 2.9764m5.9644 0.15813 15.103 0.40043c1.065 0.03 2.164-0.0762 2.763-0.14918l25.356-3.2501c0.2715-0.033 0.58639-0.14604 0.70253-0.25383l0.0125-1.5489m-162.15 0.11818 133.33 3.535c1.065 0.03 2.164-0.0762 2.763-0.14918l25.356-3.2501c0.2715-0.033 0.58639-0.14604 0.70254-0.25383 0.11614-0.1078 0.0335-0.21034-0.48997-0.22234l-127.03-3.1542c-0.79-0.019-1.8815 0.011-2.4494 0.066l-32.309 3.0234c-0.30885 0.03-0.47481 0.12556-0.46453 0.21649 0.0103 0.0909 0.19683 0.17724 0.59298 0.18874z"
             id="path12" />
          <path
             d="m645.74-1.9353s0.32245 2.5475 1.8029 3.5155 14.349-2.1068 14.349-2.1068 0.70701-0.0708 1.1957-1.1957c0.34045-0.78365 0.39862-1.9929 0.39862-1.9929"
             id="path13" />
          <path
             d="m633.9-0.4567s0.49578 1.5814 1.4638 2.0939c0.96799 0.51246 16.721 0.63216 16.721 0.63216s4.3722-0.77344 4.5944-0.98913c0.12254-0.11898 0.11277-0.68147 0.11277-0.68147"
             id="path14" />
          <path
             d="m580.82-3.5575c0.64421 2.9794 2.9794 2.7379 2.9794 2.7379l6.2209-0.85723"
             id="path15" />
          <path
             d="m577.66-3.7042c0.64421 2.9794 2.9794 2.7379 2.9794 2.7379l1.685-0.21742"
             id="path16" />
          <path
             d="m626.05-3.1348 5.9589 0.12076v1.6306c-0.0173 0.35259-0.22766 0.53613-0.45405 0.58979-0.49939 3e-3 -3.3372-0.0631-4.9009-0.10662-0.0998-0.0115-0.60717-0.10716-0.60682-0.3705z"
             id="path17" />
          <path
             d="m631.74-0.9306s1.5374-0.12416 1.5615-0.51286l4e-3 -0.83399"
             id="path18" />
        </g>
        <path
           d="m627.95-2.5337-0.66904 0.98221 1.4235 0.0285z"
           stroke-linejoin="round"
           id="path19" />
        <path
           d="m629.2-2.491 0.78293 0.93951 0.76868-0.92528z"
           stroke-linejoin="round"
           id="path20" />
      </g>
    </g>
    <g
       transform="translate(-298.82 100.29)"
       id="g40">
      <g
         fill="none"
         stroke="#000"
         stroke-width=".5"
         id="g39">
        <g
           id="g31">
          <path
             d="m472.43 30.101 0.0188 49.068s0.28583 0.71068 3.8628 0.75188c3.577 0.04124 3.8914-0.59033 3.8914-0.59033l-0.0333-49.654"
             id="path21" />
          <path
             d="m472.94 79.47 1e-3 4.921s0.65709 0.73922 3.463 0.72332c2.806-0.01587 3.2346-0.59033 3.2346-0.59033l1e-3 -4.9599"
             id="path22" />
          <path
             d="m473.52 84.74 0.0132 4.6516s0.37846 0.61801 2.6594 0.60216c2.2809-0.01586 2.7854-0.76372 2.7854-0.76372l-4e-3 -4.3772"
             id="path23" />
          <path
             d="m366.65 70.512 1e-3 4.1145s0.98367 0.84707 3.2646 0.83122c2.2809-0.01584 3.1091-0.7372 3.1091-0.7372l-0.0138-4.2084"
             id="path24" />
          <path
             d="m367.27 75.01 0.0242 3.6193s0.37845 0.61801 2.6594 0.60216c2.2809-0.01587 2.7854-0.76372 2.7854-0.76372l-0.0197-3.5331"
             id="path25" />
          <path
             d="m366.13 24.559 0.0106 45.66s0.65972 0.80938 3.429 0.81022c2.7693 8.43e-4 3.6277-0.68783 3.6277-0.68783l-0.05013-45.558"
             id="path26" />
          <path
             d="m460.37 95.252 0.0176 1.4722c0.35865 0.46073 1.6349 0.71792 2.2902 0.81 1.3107 0.18416 1.8624 0.34815 3.5723 0.17374 0 0 24.419-9.7198 24.425-9.8761 7e-3 -0.14819-0.0237-1.8633-0.0237-1.8633m-11.641 0.90257c2.4226-0.79296 4.5233-1.3951 5.1299-1.5307 1.0621-0.2375 2.756-0.10366 3.8412 9.91e-4 1.0852 0.10472 2.7494 0.38735 2.67 0.62714-0.16885 0.50981-7.8289 2.4387-11.903 4.1236-4.0742 1.6849-11.927 5.7531-12.542 5.9859-0.61528 0.23278-1.7289 0.24395-3.0427 0.14726-1.3138-0.09665-3.0211-0.5414-2.7935-0.97329 0.55153-1.0466 9.2032-4.7701 13.135-6.3883"
             id="path27" />
          <path
             d="m460.33 96.763"
             id="path28" />
          <path
             d="m352.9 84.371 0.0176 1.4722c0.35863 0.46073 1.4635 0.43234 2.1189 0.52443 1.3107 0.18416 1.9195 0.06254 3.6294-0.11185 0 0 28.589-8.9202 28.595-9.0765 7e-3 -0.14819-0.0237-1.4635-0.0237-1.4635m-14.492 1.2351c3.6224-0.89329 7.2994-1.7108 7.9809-1.8632 1.0621-0.23749 2.756-0.10366 3.8412 1e-3 1.0852 0.10472 2.7494 0.38734 2.67 0.62712-0.16884 0.50981-9.511 2.5036-13.731 3.7809-4.2456 1.2851-14.269 5.182-14.884 5.4147-0.61526 0.23278-1.6147 0.52954-2.9284 0.43285-1.3138-0.09665-3.0211-0.5414-2.7935-0.97329 0.55154-1.0466 10.54-4.7937 14.357-5.9551"
             id="path29" />
          <path
             d="m453.31 26.089 5.7891 0.23406v1.6357c-0.0173 0.35368-0.22834 0.53778-0.45545 0.59161-0.50093 3e-3 -3.1593-0.17622-4.7278-0.21987-0.10022-0.0115-0.60905-0.10749-0.60871-0.37164z"
             id="path30" />
          <path
             d="m458.77 28.515s1.6493-0.42856 1.6734-0.81846l4e-3 -0.86094"
             id="path31" />
        </g>
        <path
           d="m455.27 26.861-0.6711 0.92878 1.4279 0.08506z"
           stroke-linejoin="round"
           id="path32" />
        <path
           d="m456.54 26.998 0.78536 0.9424 0.71458-0.87167z"
           stroke-linejoin="round"
           id="path33" />
        <g
           id="g38">
          <path
             d="m354.81 22.044 0.12692 0.85356c0.0986 0.6629 2.0248 1.0769 2.4806 1.0323l5.1068-0.49998"
             id="path34" />
          <path
             d="m362.38 22.384c0.26618 1.7035 0.90498 2.1027 0.90498 2.1027l12.905 0.43879 7.985-1.3042"
             id="path35" />
          <path
             d="m473.05 27.473c0.4517 1.6562 0.77945 3.0958 2.4357 3.0958s12.949-3.1619 13.702-3.3878c0.75283-0.22585 1.2798-2.7855 1.2798-2.7855"
             id="path36" />
          <path
             d="m460.99 26.906c0.4517 2.5596 2.006 2.7597 2.006 2.7597l11.302 0.52698"
             id="path37" />
          <path
             d="m503.26 19.725v1.2995c0 0.25356 9e-3 0.44665-0.36461 0.53027l-25.596 5.7216c-1.1895 0.2659-1.6523 0.27824-2.7855 0.22585l-15.407-0.71218m-5.8048-0.26832-112.34-5.1928c-0.35999-0.10108-0.52-0.31113-0.51941-0.51322m0-1.2996v1.2996m118.44-3.428-80.735-3.5316c-1.1581-0.05065-1.4102-0.08281-2.4844 0.07528l-34.781 5.1193c-0.28236 0.06924-0.44354 0.26338-0.44413 0.46547s0.15942 0.41214 0.51941 0.51322l133.55 6.1733c1.0667 0.0493 1.614 0.03603 2.7855-0.22585l25.596-5.7216c0.37411-0.08363 0.36461-0.53027 0.36461-0.53027-0.10313-0.23312-0.52861-0.41936-1.1927-0.44841l-41.306-1.8068"
             id="path38" />
        </g>
      </g>
    </g>
    <g
       stroke="#000"
       id="g46">
      <g
         transform="matrix(1 0 0 -1 -291.5 97.975)"
         id="g44">
        <g
           class="btn"
           id="g41">
          <rect
             transform="scale(-1)"
             x="-456.61"
             y="-12.364"
             width="15.488"
             height="11.844"
             ry="2.2547"
             fill="#ccc"
             stroke-width=".5"
             id="rect40" />
          <path
             d="m 452.6527,9.7398558 h -7.46714 l 3.73353,-6.4668 z"
             fill="none"
             stroke-width="0.500011"
             id="path40" />
        </g>
        <g
           class="btn"
           id="g42">
          <rect
             transform="scale(-1,1)"
             x="-428.55"
             y=".52027"
             width="15.488"
             height="11.844"
             ry="2.2547"
             fill="#ccc"
             stroke-width=".5"
             id="rect41" />
          <path
             transform="matrix(-.38863 0 0 .38863 979.21 89.021)"
             d="m1446.4-203.69h-19.214l9.6069-16.64z"
             fill="none"
             stroke-width="1.2866"
             id="path41" />
        </g>
        <g
           transform="rotate(180 426.78 -25.961)"
           fill="none"
           stroke-width=".8"
           id="g43">
          <path
             d="m418.76-61.837v6.9467"
             id="path42" />
          <path
             d="m422.23-58.364h-6.9467"
             id="path43" />
        </g>
      </g>
      <g
         transform="matrix(0 -.35278 -.35278 0 136.27 -28.601)"
         id="g45">
        <path
           d="m-312 66h-58.448c-6.627 0-12-5.832-12-13.026v-117.83c-7.944-1.772-26.053-6.593-50.229 1.178 18.612-11.843 33.164-14.286 50.229-14.366v-14.21c0-7.195 5.373-13.027 12-13.027h58.448c6.629 0 12 5.832 12 13.027v145.23c0 7.194-5.371 13.026-12 13.026z"
           fill="none"
           stroke="#000"
           stroke-linecap="round"
           stroke-linejoin="round"
           stroke-width=".75"
           id="path44" />
      </g>
    </g>
    <g
       stroke="#000"
       id="g52">
      <g
         transform="translate(-128.5 115)"
         id="g50">
        <g
           class="btn"
           id="g47">
          <rect
             transform="scale(-1)"
             x="-456.61"
             y="-12.364"
             width="15.488"
             height="11.844"
             ry="2.2547"
             fill="#ccc"
             stroke-width=".5"
             id="rect46" />
          <path
             d="m 452.6527,9.7398561 h -7.46714 l 3.73353,-6.4668 z"
             fill="none"
             stroke-width="0.500011"
             id="path46" />
        </g>
        <g
           class="btn"
           id="g48">
          <rect
             transform="scale(-1,1)"
             x="-428.55"
             y=".52027"
             width="15.488"
             height="11.844"
             ry="2.2547"
             fill="#ccc"
             stroke-width=".5"
             id="rect47" />
          <path
             transform="matrix(-.38863 0 0 .38863 979.21 89.021)"
             d="m1446.4-203.69h-19.214l9.6069-16.64z"
             fill="none"
             stroke-width="1.2866"
             id="path47" />
        </g>
        <g
           transform="rotate(180 426.78 -25.961)"
           fill="none"
           stroke-width=".8"
           id="g49">
          <path
             d="m418.76-61.837v6.9467"
             id="path48" />
          <path
             d="m422.23-58.364h-6.9467"
             id="path49" />
        </g>
      </g>
      <g
         transform="matrix(0 .35278 .35278 0 350.5 242.29)"
         id="g51">
        <path
           d="m-312-37.5h-58.448c-6.627 0-12-5.832-12-13.026v-14.332c-7.944-1.772-26.053-6.593-50.229 1.178 18.612-11.843 33.164-14.286 50.229-14.366v-119.21c0-7.195 5.373-13.027 12-13.027h58.448c6.629 0 12 5.832 12 13.027v146.73c0 7.194-5.371 13.026-12 13.026z"
           fill="none"
           stroke="#000"
           stroke-linecap="round"
           stroke-linejoin="round"
           stroke-width=".75"
           id="path50" />
      </g>
    </g>
  </g>
  <style
     type="text/css"
     id="style53">@media (prefers-color-scheme: dark)
{
    [stroke=&quot;#000&quot;] { stroke: #fff; }
    .btn { stroke: #000; }
}</style>
</svg>
